<?xml version="1.0" encoding="UTF-8"?>
<svg width="104px" height="96px" viewBox="0 0 104 96" version="1.1" xmlns="http://www.w3.org/2000/svg" xmlns:xlink="http://www.w3.org/1999/xlink">
    <title>EmailSubscribeIcon-MobileAndTablet-96px-Blue</title>
    <defs>
        <rect id="path-1" x="0" y="0" width="104" height="96"></rect>
    </defs>
    <g id="EmailSubscribeIcon-MobileAndTablet-96px-Blue" stroke="none" stroke-width="1" fill="none" fill-rule="evenodd">
        <g id="Shape">
            <mask id="mask-2" fill="white">
                <use xlink:href="#path-1"></use>
            </mask>
            <g id="Mask"></g>
            <path d="M66.8879403,68.1143492 L101.757313,94.4316985 C101.263428,94.7892363 100.656327,95 100,95 L4,95 C3.64078732,95 3.2963202,94.9368668 2.97708926,94.821091 L37.3009403,68.2653492 L49.2051326,77.6990851 L49.3897806,77.8379149 C50.9506063,78.9503332 53.0493937,78.9503332 54.6102194,77.8379149 L54.7948674,77.6990851 L66.8879403,68.1143492 Z M0.999940282,39.4983492 L34.8799403,66.3463492 L1.04516738,92.5215026 C1.01548038,92.3521332 0.999940282,92.1778744 0.999940282,92 L0.999940282,39.4983492 Z M102.99994,39.4983492 L102.99994,91.6113492 L69.3169403,66.1893492 L102.99994,39.4983492 Z M53.084,25.88 C61.444,25.88 68.088,30.852 68.088,39.388 C68.088,44.844 65.316,50.96 59.288,50.96 C57.3161481,50.96 56.3959506,50.2588971 55.6228981,49.2613402 L55.4150343,48.9822332 L55.4150343,48.9822332 L55.2103895,48.6902501 C55.1763237,48.6406145 55.1422222,48.5905185 55.108,48.54 C53.744,49.948 52.116,50.96 49.74,50.96 C45.384,50.96 43.624,48.188 43.624,44.668 C43.624,39.828 46.792,34.108 52.732,34.108 C54.217,34.108 55.3152813,34.4947187 56.1356084,35.1593916 L56.296,35.296 L56.384,34.944 C56.4652308,34.5784615 56.8838817,34.4378698 57.5361311,34.4184033 L57.704,34.416 L58.804,34.416 C59.816,34.416 60.036,34.768 59.992,34.988 L59.8548688,35.491242 L59.8548688,35.491242 L59.7085015,36.0560583 L59.7085015,36.0560583 L59.5544373,36.6793703 L59.5544373,36.6793703 L59.3942157,37.3580991 L59.3942157,37.3580991 L59.2293761,38.0891662 L59.2293761,38.0891662 L59.0614577,38.8694927 C59.0333003,39.003481 59.0050787,39.1393936 58.9768251,39.2771662 L58.892,39.696 L58.056,43.964 C57.924,44.668 57.836,45.328 57.836,45.856 C57.836,47.044 58.276,48.276 60.036,48.276 C62.8226667,48.276 64.2169642,45.2958416 64.7467189,42.3750756 L64.8232568,41.9148388 C64.8348413,41.8383626 64.8458464,41.7620383 64.8562816,41.6859214 L64.9121315,41.2321507 C64.9203257,41.1570845 64.9279694,41.0823365 64.935072,41.007962 L64.9712728,40.5666398 C64.9762499,40.4939808 64.9807053,40.4218061 64.9846485,40.3501711 L65.0022391,39.92728 L65.0022391,39.92728 L65.008,39.52 L65.008,39.52 C65.008,32.612 59.86,28.652 52.996,28.652 C44.548,28.652 38.476,34.592 38.476,43.216 C38.476,51.356 43.668,55.668 51.06,55.668 C53.392,55.668 55.988,55.272 58.056,54.612 C58.2996923,54.5307692 58.5433846,54.7494675 58.7178625,55.3027019 L58.9194519,56.0137143 C59.0518367,56.5147755 59.1057143,56.9188571 58.804,57.032 C56.428,57.956 53.128,58.44 50.532,58.44 C41.776,58.44 35.396,53.028 35.396,43.612 C35.396,33.272 43.14,25.88 53.084,25.88 Z M53.7616828,2.27808363 L65.7849403,10.9993492 L80,11 C83.2383969,11 85.8775718,13.5655749 85.9958615,16.7750617 L86,17 L85.9999403,25.6643492 L101.46594,36.8863492 L82.9999403,51.519 L83,17 C83,15.4023191 81.75108,14.0963391 80.1762728,14.0050927 L80,14 L24,14 C22.4023191,14 21.0963391,15.24892 21.0050927,16.8237272 L21,17 L20.9999403,51.519 L2.53394028,36.8863492 L17.9999403,25.6653492 L18,17 C18,13.7616031 20.5655749,11.1224282 23.7750617,11.0041385 L24,11 L38.2139403,10.9993492 L50.2383172,2.27808363 C51.2890724,1.51577102 52.7109276,1.51577102 53.7616828,2.27808363 Z M52.512,37.056 C49.124,37.056 47.54,40.972 47.54,44.272 C47.54,46.56 48.244,47.924 50.312,47.924 C52.5358857,47.924 53.5212702,46.2928033 54.1441665,44.1567123 L54.2681567,43.7079277 L54.2681567,43.7079277 L54.3835265,43.2469514 L54.3835265,43.2469514 L54.492,42.776 L55.46,38.332 C54.756,37.54 53.744,37.056 52.512,37.056 Z" fill="#82AFC9" mask="url(#mask-2)"></path>
        </g>
    </g>
</svg>